<?xml version="1.0" encoding="utf-8"?>
<!-- Generator: Adobe Illustrator 15.0.2, SVG Export Plug-In . SVG Version: 6.00 Build 0)  -->
<!DOCTYPE svg PUBLIC "-//W3C//DTD SVG 1.1//EN" "http://www.w3.org/Graphics/SVG/1.1/DTD/svg11.dtd">
<svg version="1.1" id="Слой_1" xmlns="http://www.w3.org/2000/svg" xmlns:xlink="http://www.w3.org/1999/xlink" x="0px" y="0px"
	 width="60px" height="50px" viewBox="0 0 60 50" enable-background="new 0 0 60 50" xml:space="preserve">
<path fill="#2C2D2D" stroke="#2C2D2D" stroke-miterlimit="10" d="M59,43.033L59,43.033c0,3.213-2.804,5.818-6.265,5.818l0,0H7.631
	l0,0c-3.46,0-6.264-2.605-6.264-5.818V9.287c0-2.57,2.244-4.654,5.012-4.654l0,0H31.65l10.146-3.414
	c0.645-0.217,1.355,0.091,1.589,0.685l1.068,2.729h4.522c2.768,0,5.013,2.084,5.013,4.654v2.328l0,0
	c2.767,0,5.011,2.084,5.011,4.655V43.033z M6.379,6.959L6.379,6.959c-1.383,0-2.506,1.043-2.506,2.327
	c0,1.285,1.124,2.328,2.506,2.328h4.316l0,0h0.237c0.016-0.005,0.026-0.019,0.042-0.025l13.759-4.63H6.379z M42.811,7.17
	l-1.331-3.403l0,0l0,0l-2.572,0.865h0.005l-6.907,2.327h-0.013l-13.831,4.655h26.387L42.811,7.17z M51.482,9.287
	c0-1.284-1.122-2.327-2.506-2.327h-3.612l1.821,4.655h4.297l0,0V9.287z M53.989,13.941H6.379l0,0c-0.917,0-1.768-0.245-2.506-0.646
	v29.737c0,1.928,1.684,3.49,3.758,3.49h45.104c2.075,0,3.759-1.563,3.759-3.49v-8.145h-5.012c-2.768,0-5.01-2.086-5.01-4.656
	s2.242-4.655,5.01-4.655h5.012v-9.309C56.494,14.985,55.37,13.941,53.989,13.941z M56.494,32.561v-4.656h-5.012
	c-1.382,0-2.506,1.045-2.506,2.328c0,1.285,1.124,2.328,2.506,2.328H56.494z M51.482,29.068h2.507v2.328h-2.507V29.068z"/>
</svg>
