<?xml version="1.0" encoding="utf-8"?>
<!-- Generator: Adobe Illustrator 15.0.2, SVG Export Plug-In . SVG Version: 6.00 Build 0)  -->
<!DOCTYPE svg PUBLIC "-//W3C//DTD SVG 1.1//EN" "http://www.w3.org/Graphics/SVG/1.1/DTD/svg11.dtd">
<svg version="1.1" id="Слой_1" xmlns="http://www.w3.org/2000/svg" xmlns:xlink="http://www.w3.org/1999/xlink" x="0px" y="0px"
	 width="60px" height="50px" viewBox="0 0 60 50" enable-background="new 0 0 60 50" xml:space="preserve">
<g id="Layer_1">
</g>
<g id="Layer_2">
	<g>
		<path fill="#2D2D2D" stroke="#2D2D2D" stroke-width="0.5" stroke-miterlimit="10" d="M28.691,20.415l-3.174-3.148l-0.601,0.595
			l-2.574,2.724l6.435,6.382l10.638-10.552l-3.346-3.318L28.691,20.415z M28.778,24.585l-4.033-4l0.858-0.937l3.175,3.149
			l7.377-7.318l0.943,0.936L28.778,24.585z"/>
		<path fill="#2D2D2D" stroke="#2D2D2D" stroke-miterlimit="10" d="M49.196,17.947c-0.087-0.511-0.259-0.851-0.43-1.276
			c-0.343-0.511-0.772-0.937-1.03-1.362c-0.342-0.341-0.6-0.766-0.685-1.021c-0.087-0.17-0.087-0.426-0.087-0.766
			c0-0.425,0-0.851,0-1.361c0-0.596-0.087-1.277-0.429-1.958c-0.257-0.425-0.601-0.681-0.945-0.936
			c-0.514-0.34-1.027-0.511-1.543-0.766c-0.429-0.17-0.858-0.425-1.029-0.596c-0.257-0.255-0.516-0.851-0.856-1.531
			c-0.173-0.341-0.344-0.682-0.517-1.021c-0.257-0.34-0.514-0.681-0.943-0.937c-0.601-0.34-1.286-0.34-1.972-0.34
			c-0.517,0-0.945,0-1.375,0c-0.342,0-0.601,0-0.771-0.085c-0.344-0.085-0.857-0.51-1.373-1.021
			c-0.258-0.256-0.601-0.511-0.944-0.681c-0.343-0.255-0.771-0.426-1.286-0.426c-0.086,0-0.173,0-0.257,0
			c-0.43,0-0.858,0.085-1.203,0.256c-0.6,0.17-1.028,0.426-1.457,0.68c-0.429,0.256-0.772,0.34-1.03,0.425h-0.171
			c-0.343,0-0.772-0.085-1.287-0.254c-0.515-0.171-1.116-0.34-1.802-0.34c-0.257,0-0.601,0-0.944,0.169
			c-0.428,0.171-0.857,0.425-1.115,0.682c-0.429,0.425-0.771,0.935-1.029,1.361c-0.343,0.425-0.6,0.766-0.858,0.851
			c-0.171,0.086-0.343,0.171-0.601,0.171c-0.429,0.085-0.943,0.17-1.544,0.34c-0.601,0.17-1.201,0.34-1.715,0.851
			c-0.344,0.34-0.515,0.766-0.687,1.106c-0.171,0.595-0.257,1.191-0.343,1.701c-0.086,0.511-0.172,0.937-0.343,1.107
			c-0.172,0.34-0.687,0.681-1.287,1.106c-0.257,0.254-0.601,0.425-0.944,0.766c-0.257,0.256-0.6,0.681-0.686,1.106
			c-0.086,0.34-0.171,0.595-0.171,0.936c0,0.681,0.171,1.276,0.343,1.788c0.172,0.51,0.257,1.021,0.257,1.276v0.17
			c0,0.34-0.257,0.851-0.6,1.446c-0.171,0.34-0.344,0.596-0.516,1.021c-0.171,0.34-0.257,0.766-0.257,1.191c0,0.084,0,0.169,0,0.254
			c0.085,0.511,0.257,0.851,0.429,1.277c0.344,0.511,0.772,0.936,1.03,1.361c0.343,0.34,0.601,0.765,0.687,1.021
			c0.085,0.171,0.085,0.426,0.085,0.768c0,0.424,0,0.851,0,1.359c0,0.597,0.086,1.277,0.429,1.958
			c0.257,0.426,0.601,0.682,0.943,0.936c0.515,0.341,1.03,0.512,1.545,0.767c0.429,0.17,0.858,0.425,1.029,0.596
			c0.258,0.256,0.515,0.851,0.858,1.532c0.172,0.34,0.343,0.68,0.515,1.021c0.257,0.34,0.515,0.68,0.943,0.936
			c0.086,0.086,0.257,0.086,0.343,0.17L17.968,46.37l5.662-1.786l3.432,4.849l3.946-11.657c0,0,0.086,0,0.086-0.086l3.945,11.659
			l3.433-4.852l5.662,1.788l-4.032-11.914l0.086-0.086c0.172-0.085,0.344-0.169,0.688-0.255c0.429-0.085,0.943-0.171,1.544-0.34
			c0.6-0.17,1.2-0.341,1.715-0.851c0.343-0.341,0.515-0.767,0.688-1.107c0.171-0.595,0.256-1.19,0.343-1.701
			c0.085-0.511,0.171-0.937,0.343-1.107c0.172-0.339,0.686-0.68,1.286-1.106c0.259-0.253,0.602-0.425,0.943-0.765
			c0.258-0.256,0.602-0.682,0.688-1.107c0.086-0.339,0.171-0.595,0.171-0.935c0-0.681-0.171-1.276-0.343-1.788
			c-0.172-0.51-0.258-1.02-0.258-1.276v-0.169c0-0.341,0.258-0.852,0.601-1.447c0.172-0.341,0.343-0.596,0.515-1.021
			c0.172-0.34,0.258-0.766,0.258-1.191C49.281,18.118,49.196,18.032,49.196,17.947z M26.376,45.604l-2.145-3.063l-3.604,1.105
			l2.66-7.744c0.429,0,0.944,0,1.287,0c0.343,0,0.601,0,0.772,0.085c0.343,0.086,0.858,0.512,1.373,1.021
			c0.257,0.256,0.6,0.511,0.944,0.681c0.343,0.256,0.772,0.425,1.287,0.425l0,0L26.376,45.604z M37.613,42.541l-2.145,3.063
			l-2.917-8.68c0.086,0,0.257-0.086,0.344-0.086h0.171c0.343,0,0.772,0.086,1.287,0.257c0.515,0.17,1.115,0.34,1.802,0.34
			c0.257,0,0.6,0,0.943-0.17c0.43-0.17,0.858-0.427,1.115-0.682c0.172-0.17,0.343-0.425,0.517-0.596l2.573,7.745L37.613,42.541z
			 M47.395,18.798c-0.172,0.34-0.343,0.766-0.602,1.276c-0.257,0.511-0.514,1.021-0.601,1.617c0,0.085,0,0.255,0,0.34
			c0,0.682,0.172,1.277,0.344,1.788c0.172,0.51,0.257,1.021,0.257,1.276c0,0.17,0,0.255-0.085,0.34
			c-0.086,0.171-0.172,0.255-0.344,0.426c-0.256,0.255-0.686,0.597-1.115,0.851c-0.428,0.341-0.943,0.681-1.286,1.276
			c-0.257,0.341-0.344,0.767-0.429,1.106c-0.173,0.597-0.173,1.106-0.345,1.532c-0.084,0.425-0.257,0.767-0.428,0.937
			c-0.086,0.084-0.259,0.169-0.516,0.254c-0.344,0.171-0.857,0.171-1.371,0.341c-0.516,0.085-1.117,0.256-1.717,0.595
			c-0.772,0.513-1.201,1.192-1.63,1.703c-0.173,0.256-0.43,0.511-0.602,0.68c-0.172,0.171-0.342,0.257-0.429,0.341
			c-0.086,0-0.172,0.086-0.343,0.086c-0.344,0-0.771-0.086-1.287-0.256c-0.515-0.171-1.115-0.34-1.802-0.34
			c-0.085,0-0.258,0-0.342,0c-0.858,0.085-1.545,0.51-2.146,0.852c-0.257,0.169-0.601,0.255-0.773,0.425
			c-0.257,0.085-0.429,0.17-0.6,0.17h-0.086c-0.171,0-0.343-0.085-0.515-0.17c-0.343-0.17-0.686-0.511-1.115-0.937
			c-0.429-0.34-0.943-0.765-1.544-0.936C25.432,34.2,25.002,34.2,24.573,34.2c-0.514,0-1.029,0.085-1.373,0
			c-0.515,0-0.858-0.084-1.029-0.17c-0.085-0.085-0.257-0.171-0.343-0.425c-0.171-0.34-0.429-0.766-0.601-1.276
			c-0.257-0.512-0.514-1.106-0.943-1.532c-0.686-0.596-1.458-0.937-2.059-1.191c-0.343-0.17-0.601-0.255-0.772-0.425
			c-0.172-0.171-0.343-0.257-0.429-0.341c-0.086-0.17-0.172-0.511-0.172-1.022c0-0.425,0-0.85,0-1.359c0-0.427,0-0.852-0.171-1.363
			c-0.344-0.851-0.857-1.447-1.373-1.957c-0.257-0.256-0.429-0.511-0.515-0.681c-0.171-0.254-0.171-0.426-0.171-0.511v-0.085
			c0-0.17,0-0.34,0.171-0.595c0.171-0.341,0.343-0.766,0.601-1.277c0.257-0.511,0.515-1.021,0.601-1.617c0-0.084,0-0.254,0-0.34
			c0-0.682-0.171-1.276-0.344-1.787c-0.171-0.511-0.257-1.021-0.257-1.277c0-0.17,0-0.254,0.085-0.34
			c0.085-0.17,0.171-0.255,0.344-0.425c0.257-0.255,0.686-0.596,1.115-0.852c0.429-0.34,0.944-0.68,1.287-1.276
			c0.257-0.34,0.343-0.767,0.429-1.106c0.172-0.596,0.172-1.107,0.343-1.532c0.085-0.426,0.258-0.766,0.429-0.936l0,0
			c0.086-0.085,0.257-0.17,0.515-0.256c0.343-0.169,0.858-0.169,1.373-0.34C21.828,7.82,22.428,7.65,23.03,7.31
			c0.771-0.51,1.201-1.191,1.63-1.702c0.171-0.255,0.429-0.51,0.6-0.681c0.172-0.17,0.343-0.255,0.429-0.34
			c0.086,0,0.172-0.086,0.343-0.086c0.344,0,0.773,0.086,1.287,0.256c0.515,0.17,1.116,0.34,1.802,0.34c0.086,0,0.257,0,0.343,0
			c0.858-0.085,1.544-0.51,2.145-0.852c0.258-0.17,0.601-0.255,0.772-0.425c0.257-0.085,0.428-0.17,0.601-0.17h0.085
			c0.172,0,0.343,0.085,0.516,0.17c0.343,0.17,0.686,0.511,1.114,0.937c0.43,0.34,0.943,0.766,1.545,0.935
			c0.257,0.086,0.686,0.086,1.114,0.086c0.517,0,1.03-0.086,1.375,0c0.514,0,0.857,0.085,1.027,0.17
			c0.086,0.084,0.26,0.17,0.344,0.425c0.172,0.34,0.43,0.766,0.601,1.276c0.258,0.511,0.515,1.106,0.943,1.532
			c0.687,0.596,1.46,0.936,2.061,1.191c0.342,0.171,0.6,0.256,0.771,0.426c0.172,0.17,0.345,0.255,0.43,0.34
			c0.086,0.17,0.171,0.511,0.171,1.021c0,0.425,0,0.851,0,1.361c0,0.426,0,0.851,0.172,1.361c0.342,0.851,0.859,1.447,1.373,1.958
			c0.256,0.255,0.43,0.51,0.515,0.681c0.171,0.255,0.171,0.425,0.171,0.51v0.085C47.566,18.372,47.479,18.543,47.395,18.798z"/>
	</g>
</g>
</svg>
