<?xml version="1.0" encoding="utf-8"?>
<!-- Generator: Adobe Illustrator 15.0.2, SVG Export Plug-In . SVG Version: 6.00 Build 0)  -->
<!DOCTYPE svg PUBLIC "-//W3C//DTD SVG 1.1//EN" "http://www.w3.org/Graphics/SVG/1.1/DTD/svg11.dtd">
<svg version="1.1" id="Material_Expand" xmlns="http://www.w3.org/2000/svg" xmlns:xlink="http://www.w3.org/1999/xlink" x="0px"
	 y="0px" width="60px" height="50px" viewBox="0 0 60 50" enable-background="new 0 0 60 50" xml:space="preserve">
<path fill="#2D2D2D" d="M30,14.063c-6.041,0-10.938,4.897-10.938,10.938c0,6.041,4.897,10.938,10.938,10.938
	c6.041,0,10.938-4.896,10.938-10.938C40.932,18.962,36.038,14.069,30,14.063z M30,32.813c-4.315,0-7.813-3.498-7.813-7.813
	c0-4.315,3.498-7.813,7.813-7.813c4.314,0,7.813,3.498,7.813,7.813C37.808,29.313,34.313,32.808,30,32.813z"/>
<path fill="#2D2D2D" d="M51.875,19.531h-5.596c-0.25-0.745-0.551-1.472-0.901-2.175l3.957-3.958c0.61-0.61,0.61-1.599,0-2.209
	l-5.524-5.524c-0.609-0.61-1.599-0.61-2.209,0l-3.957,3.956c-0.703-0.35-1.431-0.65-2.176-0.9V3.125
	c0-0.863-0.699-1.563-1.563-1.563h-7.813c-0.863,0-1.563,0.7-1.563,1.563v5.596c-0.745,0.25-1.472,0.55-2.176,0.9l-3.957-3.956
	c-0.61-0.61-1.599-0.61-2.209,0l-5.524,5.524c-0.61,0.61-0.61,1.599,0,2.209l3.957,3.958c-0.35,0.703-0.651,1.43-0.901,2.175H8.125
	c-0.863,0-1.563,0.7-1.563,1.563v7.813c0,0.863,0.7,1.563,1.563,1.563h5.596c0.25,0.744,0.55,1.472,0.9,2.175l-3.956,3.958
	c-0.61,0.61-0.61,1.6,0,2.209l5.524,5.524c0.61,0.61,1.599,0.61,2.209,0l3.958-3.957c0.703,0.351,1.43,0.651,2.175,0.901v5.596
	c0,0.863,0.7,1.563,1.563,1.563h7.813c0.863,0,1.563-0.699,1.563-1.563v-5.596c0.745-0.25,1.472-0.551,2.175-0.901l3.958,3.957
	c0.61,0.61,1.6,0.61,2.209,0l5.524-5.524c0.61-0.609,0.61-1.599,0-2.209l-3.956-3.958c0.35-0.703,0.65-1.431,0.9-2.175h5.596
	c0.863,0,1.563-0.699,1.563-1.563v-7.813C53.438,20.231,52.738,19.531,51.875,19.531z M50.313,27.344h-5.199
	c-0.713,0-1.335,0.482-1.514,1.172c-0.326,1.27-0.83,2.485-1.496,3.614c-0.362,0.614-0.264,1.396,0.241,1.899l3.677,3.677
	l-3.315,3.315l-3.677-3.678c-0.504-0.504-1.285-0.604-1.898-0.241c-1.129,0.666-2.346,1.171-3.615,1.497
	c-0.689,0.179-1.172,0.801-1.172,1.514v5.199h-4.688v-5.199c0-0.713-0.482-1.335-1.172-1.514c-1.269-0.326-2.486-0.83-3.615-1.496
	c-0.614-0.363-1.396-0.264-1.899,0.241l-3.676,3.677l-3.315-3.315l3.677-3.677c0.504-0.504,0.604-1.285,0.241-1.899
	c-0.666-1.129-1.17-2.345-1.497-3.614c-0.178-0.689-0.8-1.172-1.513-1.172H9.688v-4.688h5.199c0.713,0,1.335-0.482,1.513-1.172
	c0.327-1.269,0.831-2.486,1.497-3.615c0.362-0.614,0.263-1.396-0.242-1.899l-3.676-3.676l3.315-3.315l3.676,3.677
	c0.504,0.504,1.286,0.604,1.9,0.241c1.128-0.667,2.345-1.17,3.614-1.497c0.69-0.178,1.172-0.8,1.172-1.513V4.688h4.688v5.199
	c0,0.713,0.482,1.335,1.172,1.513c1.27,0.327,2.486,0.83,3.614,1.496c0.614,0.363,1.396,0.264,1.899-0.241l3.677-3.676l3.315,3.315
	l-3.678,3.676c-0.504,0.504-0.604,1.285-0.241,1.899c0.666,1.128,1.171,2.346,1.497,3.615c0.179,0.69,0.801,1.172,1.514,1.172h5.199
	V27.344z"/>
<rect x="25.313" y="23.438" fill="#2D2D2D" width="3.125" height="3.125"/>
<rect x="31.563" y="23.438" fill="#2D2D2D" width="3.125" height="3.125"/>
</svg>
