<?xml version="1.0" encoding="utf-8"?>
<!-- Generator: Adobe Illustrator 15.0.2, SVG Export Plug-In . SVG Version: 6.00 Build 0)  -->
<!DOCTYPE svg PUBLIC "-//W3C//DTD SVG 1.1//EN" "http://www.w3.org/Graphics/SVG/1.1/DTD/svg11.dtd">
<svg version="1.1" id="Слой_1" xmlns="http://www.w3.org/2000/svg" xmlns:xlink="http://www.w3.org/1999/xlink" x="0px" y="0px"
	 width="100px" height="50px" viewBox="0 0 100 50" enable-background="new 0 0 100 50" xml:space="preserve">
<g id="Layer_2">
	<g>
		<path fill="#2C2D2D" d="M86.516,18.833c-0.352-0.479-0.926-0.77-1.527-0.77H73.357v-4.773c0-0.986-0.855-1.804-1.886-1.804h-42.17
			c-1.029,0-1.879,0.816-1.879,1.804v29.198c0,0.988,0.85,1.806,1.879,1.806h5.306C35.58,47.563,38.735,50,42.44,50
			c3.706,0,6.859-2.408,7.833-5.706h20.8c0.973,3.27,4.126,5.706,7.84,5.706c3.699,0,6.853-2.408,7.826-5.706h3.888
			c1.02,0,1.873-0.817,1.873-1.806V27.623c0-0.387-0.124-0.746-0.354-1.035L86.516,18.833z M88.77,28.151h-8.413v-6.453h3.686
			L88.77,28.151z M31.178,15.121h38.421v25.582H50.451c-0.725-3.635-4.033-6.382-8.011-6.382c-3.979,0-7.31,2.749-8.009,6.382
			h-3.253V15.121L31.178,15.121z M42.44,46.391c-2.426,0-4.407-1.909-4.407-4.238c0-2.34,1.981-4.241,4.407-4.241
			c2.432,0,4.406,1.901,4.406,4.241C46.846,44.481,44.872,46.391,42.44,46.391z M78.929,46.391c-2.418,0-4.399-1.909-4.399-4.238
			c0-2.34,1.981-4.241,4.399-4.241c2.431,0,4.405,1.901,4.405,4.241C83.334,44.481,81.358,46.391,78.929,46.391z M86.943,40.703
			c-0.724-3.635-4.03-6.382-8.015-6.382c-2.149,0-4.126,0.818-5.571,2.142V21.7h3.227v8.255c0,0.996,0.85,1.817,1.871,1.817h10.346
			v8.931H86.943z"/>
		<path fill="#2C2D2D" d="M9.378,15.121h13.389c1.024,0,1.878-0.816,1.878-1.803c0-0.986-0.854-1.81-1.878-1.81H9.378
			c-1.027,0-1.878,0.823-1.878,1.81C7.5,14.304,8.351,15.121,9.378,15.121z"/>
		<path fill="#2C2D2D" d="M22.767,18.086h-10.31c-1.031,0-1.878,0.816-1.878,1.804c0,0.993,0.848,1.81,1.878,1.81h10.309
			c1.025,0,1.878-0.816,1.878-1.81C24.645,18.902,23.819,18.086,22.767,18.086z"/>
		<path fill="#2C2D2D" d="M22.767,24.663H16.26c-1.024,0-1.878,0.817-1.878,1.806c0,0.985,0.854,1.805,1.878,1.805h6.507
			c1.024,0,1.878-0.819,1.878-1.805C24.645,25.48,23.819,24.663,22.767,24.663z"/>
		<path fill="#2C2D2D" d="M22.767,31.235h-2.254c-1.025,0-1.873,0.818-1.873,1.805s0.849,1.813,1.873,1.813h2.254
			c1.024,0,1.878-0.826,1.878-1.813C24.645,32.054,23.819,31.235,22.767,31.235z"/>
	</g>
</g>
</svg>
